# xmcd
#
# Track frame offsets: 
#        150
#        47419
#        79017
#        125532
#        152882
#        186520
#        213687
#
# Disc length: 3736 seconds
#
# Revision: 2
# Processed by: cddbd v1.5.2PL0 Copyright (c) Steve Scherf et al.
# Submitted via: ExactAudioCopyFreeDBPlugin 1.0
#
DISCID=5f0e9607
DTITLE=Avishai Cohen - As Is...Live At The Blue Note
DYEAR=2007
DGENRE=Jazz
TTITLE0=Smash
TTITLE1=Elli
TTITLE2=Etude
TTITLE3=Bass Suite #1
TTITLE4=Feediop
TTITLE5=Remembering
TTITLE6=Caravan
EXTD=YEAR: 2007
EXTT0=
EXTT1=
EXTT2=
EXTT3=
EXTT4=
EXTT5=
EXTT6=
PLAYORDER=
